<svg width="34" height="34" viewBox="0 0 34 34" fill="none" xmlns="http://www.w3.org/2000/svg">
<path d="M4.95837 10.625H10.625" stroke="#222222" stroke-linecap="round"/>
<path d="M4.95837 21.9583H10.625" stroke="#222222" stroke-linecap="round"/>
<path d="M4.95837 16.2917H10.625" stroke="#222222" stroke-linecap="round"/>
<path fill-rule="evenodd" clip-rule="evenodd" d="M5.58579 3.58579C5 4.17157 5 5.11438 5 7V7.575C5 7.71642 5 7.78713 5.04393 7.83107C5.08787 7.875 5.15858 7.875 5.3 7.875H8.54167C9.37009 7.875 10.0417 8.54657 10.0417 9.375C10.0417 10.2034 9.37009 10.875 8.54167 10.875H5.3C5.15858 10.875 5.08787 10.875 5.04393 10.9189C5 10.9629 5 11.0336 5 11.175V13.2417C5 13.3831 5 13.4538 5.04393 13.4977C5.08787 13.5417 5.15858 13.5417 5.3 13.5417H8.54167C9.37009 13.5417 10.0417 14.2132 10.0417 15.0417C10.0417 15.8701 9.37009 16.5417 8.54167 16.5417H5.3C5.15858 16.5417 5.08787 16.5417 5.04393 16.5856C5 16.6295 5 16.7002 5 16.8417V18.9083C5 19.0498 5 19.1205 5.04393 19.1644C5.08787 19.2083 5.15858 19.2083 5.3 19.2083H8.54167C9.37009 19.2083 10.0417 19.8799 10.0417 20.7083C10.0417 21.5368 9.37009 22.2083 8.54167 22.2083H5.3C5.15858 22.2083 5.08787 22.2083 5.04393 22.2523C5 22.2962 5 22.3669 5 22.5083V24.5C5 26.3856 5 27.3284 5.58579 27.9142C6.17157 28.5 7.11438 28.5 9 28.5H20.8333C22.719 28.5 23.6618 28.5 24.2475 27.9142C24.8333 27.3284 24.8333 26.3856 24.8333 24.5V7C24.8333 5.11438 24.8333 4.17157 24.2475 3.58579C23.6618 3 22.719 3 20.8333 3H9C7.11438 3 6.17157 3 5.58579 3.58579Z" fill="#7E869E" fill-opacity="0.25"/>
<path d="M21.9584 14.875V10.625" stroke="#222222" stroke-linecap="round"/>
</svg>
